<svg width="31" height="24" viewBox="0 0 31 24" fill="none" xmlns="http://www.w3.org/2000/svg">
<g clip-path="url(#clip0_1_369)">
<g clip-path="url(#clip1_1_369)">
<g clip-path="url(#clip2_1_369)">
<path d="M12.88 4.75C14.65 4.75 16.235 5.36 17.485 6.55L20.91 3.125C18.83 1.19 16.115 0 12.88 0C8.19003 0 4.13503 2.69 2.16003 6.61L6.15003 9.705C7.09503 6.86 9.75003 4.75 12.88 4.75Z" fill="#EA4335"/>
<path d="M24.37 12.275C24.37 11.49 24.295 10.73 24.18 10H12.88V14.51H19.35C19.06 15.99 18.22 17.25 16.96 18.1L20.825 21.1C23.08 19.01 24.37 15.92 24.37 12.275Z" fill="#4285F4"/>
<path d="M6.145 14.295C5.905 13.57 5.76501 12.8 5.76501 12C5.76501 11.2 5.9 10.43 6.145 9.70499L2.155 6.60999C1.34 8.22999 0.880005 10.06 0.880005 12C0.880005 13.94 1.34 15.77 2.16 17.39L6.145 14.295Z" fill="#FBBC05"/>
<path d="M12.88 24C16.12 24 18.845 22.935 20.825 21.095L16.96 18.095C15.885 18.82 14.5 19.245 12.88 19.245C9.75003 19.245 7.09503 17.135 6.14503 14.29L2.15503 17.385C4.13503 21.31 8.19003 24 12.88 24Z" fill="#34A853"/>
</g>
</g>
</g>
<defs>
<clipPath id="clip0_1_369">
<rect width="24" height="24" fill="white" transform="translate(0.880005)"/>
</clipPath>
<clipPath id="clip1_1_369">
<rect width="24" height="24" fill="white" transform="translate(0.880005)"/>
</clipPath>
<clipPath id="clip2_1_369">
<rect width="24" height="24" fill="white" transform="translate(0.880005)"/>
</clipPath>
</defs>
</svg>
