<svg width="19" height="21" viewBox="0 0 19 21" fill="none" xmlns="http://www.w3.org/2000/svg">
<g clip-path="url(#clip0_39_50)">
<path d="M9.14431 19.7967H3.66701C2.17847 19.7967 0.970706 18.5845 0.970706 17.1004V3.89962C0.970706 2.41108 2.18293 1.20331 3.66701 1.20331H9.23344C9.56769 1.20331 9.8351 0.935908 9.8351 0.601655C9.8351 0.267402 9.56769 0 9.23344 0H3.66701C1.51442 0 -0.232605 1.75149 -0.232605 3.89962V17.1004C-0.232605 19.253 1.51888 21 3.66701 21H9.14431C9.47856 21 9.74596 20.7326 9.74596 20.3983C9.74596 20.0641 9.4741 19.7967 9.14431 19.7967Z" fill="#5FC300"/>
<path d="M19.056 10.0766L15.2322 6.25275C14.996 6.01654 14.6171 6.01654 14.3809 6.25275C14.1447 6.48895 14.1447 6.86777 14.3809 7.10398L17.1797 9.90279H4.97283C4.63857 9.90279 4.37117 10.1702 4.37117 10.5044C4.37117 10.8387 4.63857 11.1061 4.97283 11.1061H17.1797L14.3809 13.9049C14.1447 14.1411 14.1447 14.5199 14.3809 14.7561C14.4968 14.872 14.6528 14.9344 14.8043 14.9344C14.9558 14.9344 15.1118 14.8765 15.2277 14.7561L19.0516 10.9323C19.2922 10.6916 19.2922 10.3083 19.056 10.0766Z" fill="#424242"/>
</g>
<defs>
<clipPath id="clip0_39_50">
<rect width="19" height="21" fill="white"/>
</clipPath>
</defs>
</svg>
